<svg data-v-423bf9ae="" xmlns="http://www.w3.org/2000/svg" viewBox="0 0 304.8852717816457 163" class="iconAbove"><!----><!----><!----><g data-v-423bf9ae="" id="7d9217dc-eb0c-4495-8cfb-c6ff8a870731" fill="white" transform="matrix(4.441154624981523,0,0,4.441154624981523,-5.55144077483294,102.11176734813449)"><path d="M2.37 0.76L1.25 0.76L1.25 10.64L6.50 10.64L6.50 9.95L2.37 9.95ZM8.83 10.64L8.83 3.58L7.77 3.58L7.77 10.64ZM8.95 1.40C8.95 0.87 8.75 0.70 8.32 0.70C7.87 0.70 7.64 0.88 7.64 1.40C7.64 1.95 7.85 2.10 8.29 2.10C8.74 2.10 8.95 1.92 8.95 1.40ZM15.86 3.58C15.83 3.85 15.79 4.20 15.79 4.33C15.22 3.68 14.45 3.44 13.65 3.44C11.87 3.44 10.71 4.63 10.71 7.29C10.71 9.63 11.69 10.79 13.44 10.79C14.36 10.79 15.16 10.39 15.69 9.73L15.69 13.71L16.73 13.71L16.73 5.46C16.73 4.87 16.74 4.10 16.79 3.58ZM15.69 7.06C15.69 8.02 15.65 8.81 15.40 9.21C15.01 9.87 14.36 10.14 13.75 10.14C12.56 10.14 11.80 9.25 11.80 7.28C11.80 5.04 12.57 4.09 13.82 4.09C14.53 4.09 15.08 4.38 15.41 4.98C15.61 5.35 15.69 6.06 15.69 7.06ZM23.66 10.43L23.66 9.65C23.16 9.91 22.61 10.11 21.94 10.11C20.65 10.11 19.74 9.23 19.74 7.15C19.74 5.10 20.54 4.14 21.91 4.14C22.54 4.14 23.14 4.24 23.62 4.54L23.62 3.61C23.16 3.47 22.58 3.40 21.92 3.40C19.87 3.40 18.65 4.65 18.65 7.22C18.65 9.70 19.84 10.82 21.74 10.82C22.67 10.82 23.24 10.63 23.66 10.43ZM29.16 10.64L30.18 10.64C30.02 10.11 30.00 9.56 30.00 9.09L30.00 5.80C30.00 4.79 29.81 4.33 29.44 3.95C29.01 3.51 28.31 3.40 27.61 3.40C26.92 3.40 26.01 3.56 25.27 3.91L25.27 4.72C26.14 4.24 26.89 4.14 27.48 4.14C28 4.14 28.41 4.28 28.64 4.59C28.88 4.90 28.97 5.39 28.97 5.91L28.97 6.54C28.71 6.52 28.35 6.51 28.08 6.51C25.63 6.51 24.60 7.28 24.60 8.65C24.60 9.90 25.42 10.81 26.85 10.81C27.97 10.81 28.63 10.32 28.99 9.66C29.01 9.93 29.09 10.40 29.16 10.64ZM28.97 7.11L28.97 8.11C28.97 8.57 28.90 9.03 28.63 9.34C28.27 9.79 27.72 10.09 27.06 10.09C26.17 10.09 25.66 9.52 25.66 8.62C25.66 7.78 26.26 7.10 28.28 7.10C28.50 7.10 28.77 7.10 28.97 7.11ZM33.39 10.64L33.39 0.20L32.33 0.20L32.33 10.64ZM40.29 10.43L40.29 9.65C39.79 9.91 39.24 10.11 38.57 10.11C37.28 10.11 36.37 9.23 36.37 7.15C36.37 5.10 37.17 4.14 38.54 4.14C39.17 4.14 39.77 4.24 40.25 4.54L40.25 3.61C39.79 3.47 39.21 3.40 38.56 3.40C36.50 3.40 35.28 4.65 35.28 7.22C35.28 9.70 36.47 10.82 38.37 10.82C39.30 10.82 39.87 10.63 40.29 10.43ZM44.04 10.61C44.49 10.74 44.97 10.82 45.60 10.82C46.76 10.82 47.50 10.37 47.88 9.67C48.15 9.21 48.26 8.62 48.26 7.49L48.26 0.76L47.15 0.76L47.15 7.36C47.15 8.54 47.08 9.03 46.84 9.44C46.59 9.90 46.03 10.02 45.53 10.02C45.04 10.02 44.51 9.91 44.04 9.73ZM56.29 7.10C56.29 4.52 55.37 3.40 53.30 3.40C51.31 3.40 50.11 4.69 50.11 7.11C50.11 9.53 51.17 10.81 53.17 10.81C55.36 10.81 56.29 9.42 56.29 7.10ZM55.20 7.08C55.20 8.96 54.70 10.19 53.23 10.19C51.87 10.19 51.20 9.14 51.20 7.13C51.20 5.00 51.97 4.03 53.27 4.03C54.64 4.03 55.20 4.98 55.20 7.08ZM59.05 10.64C59.09 10.36 59.12 9.95 59.12 9.87C59.68 10.56 60.48 10.78 61.29 10.78C63.06 10.78 64.20 9.60 64.20 6.93C64.20 4.59 63.24 3.43 61.49 3.43C60.58 3.43 59.71 3.89 59.21 4.62L59.21 0.20L58.17 0.20L58.17 8.75C58.17 9.34 58.16 10.14 58.11 10.64ZM59.22 7.17C59.22 6.20 59.29 5.53 59.51 5.11C59.88 4.44 60.61 4.13 61.18 4.13C62.37 4.13 63.10 4.97 63.10 6.94C63.10 9.18 62.37 10.15 61.11 10.15C60.41 10.15 59.82 9.84 59.50 9.24C59.30 8.88 59.22 8.16 59.22 7.17ZM65.35 9.53L65.35 10.44C65.97 10.68 66.65 10.82 67.26 10.82C68.95 10.82 69.90 10.07 69.90 8.76C69.90 7.78 69.44 7.29 68.22 6.75L67.48 6.43C66.85 6.15 66.54 5.81 66.54 5.29C66.54 4.49 67.19 4.09 67.91 4.09C68.56 4.09 69.03 4.23 69.59 4.51L69.59 3.64C69.12 3.49 68.57 3.40 67.94 3.40C66.43 3.40 65.53 4.16 65.53 5.38C65.53 6.24 65.98 6.89 66.99 7.32L67.59 7.57C68.39 7.91 68.82 8.23 68.82 8.88C68.82 9.63 68.40 10.11 67.26 10.11C66.63 10.11 65.97 9.87 65.35 9.53Z"></path></g><!----><g data-v-423bf9ae="" id="439418b8-0a46-4993-aa86-56d4e5991ec9" transform="matrix(2.994410458179972,0,0,2.994410458179972,105.08943266912044,-1.9385669710569857)" stroke="none" fill="white"><path d="M17.572 23.933l4.106 7.095L32 13.189h-8.981V7.582L11.51.972 0 7.582v13.222l11.51 6.611 6.062-3.482zm10.96-8.744l-6.855 11.846-6.855-11.846h13.71z"></path></g><!----></svg>